<!DOCTYPE svg PUBLIC "-//W3C//DTD SVG 1.1//EN" "http://www.w3.org/Graphics/SVG/1.1/DTD/svg11.dtd">
<!-- Uploaded to: SVG Repo, www.svgrepo.com, Transformed by: SVG Repo Mixer Tools -->
<svg height="800px" width="800px" version="1.1" id="Capa_1" xmlns="http://www.w3.org/2000/svg" xmlns:xlink="http://www.w3.org/1999/xlink" viewBox="0 0 334.312 334.312" xml:space="preserve" fill="#000000" transform="rotate(0)" stroke="#000000" stroke-width="0.00334312">
<g id="SVGRepo_bgCarrier" stroke-width="0"/>
<g id="SVGRepo_tracerCarrier" stroke-linecap="round" stroke-linejoin="round" stroke="#CCCCCC" stroke-width="1.3372480000000002"/>
<g id="SVGRepo_iconCarrier"> <g> <g> <circle style="fill:#010002;" cx="167.156" cy="167.155" r="13.921"/> <path style="fill:#010002;" d="M110.483,135.793c3.497,3.491,8.079,5.239,12.656,5.239s9.159-1.748,12.656-5.245 c6.993-6.987,6.993-18.324,0-25.317L30.556,5.244c-6.993-6.987-18.318-6.987-25.311,0s-6.993,18.324,0,25.317L110.483,135.793z"/> <path style="fill:#010002;" d="M211.173,141.038c4.583,0,9.159-1.748,12.656-5.239L329.067,30.561 c6.993-6.993,6.993-18.324,0-25.317c-6.993-6.993-18.318-6.987-25.311,0L198.518,110.475c-6.993,6.993-6.993,18.324,0,25.317 C202.014,139.289,206.591,141.038,211.173,141.038z"/> <path style="fill:#010002;" d="M303.755,329.066c3.497,3.491,8.079,5.239,12.656,5.239s9.159-1.748,12.656-5.245 c6.993-6.987,6.993-18.324,0-25.317L223.829,198.517c-6.993-6.987-18.318-6.987-25.311,0s-6.993,18.324,0,25.317L303.755,329.066z "/> <path style="fill:#010002;" d="M17.901,334.311c4.583,0,9.159-1.748,12.656-5.239L135.794,223.84 c6.993-6.993,6.993-18.324,0-25.317s-18.318-6.987-25.311,0L5.245,303.748c-6.993,6.993-6.993,18.324,0,25.317 C8.741,332.562,13.324,334.311,17.901,334.311z"/> </g> </g> </g>
</svg>